<svg id="レイヤー_1" data-name="レイヤー 1" xmlns="http://www.w3.org/2000/svg" viewBox="0 0 30 25"><defs><style>.cls-1{fill:#fff;}</style></defs><title>ico_twitter_01</title><path class="cls-1" d="M30,3.21a12.31,12.31,0,0,1-3.53,1,6.13,6.13,0,0,0,2.7-3.4,12.52,12.52,0,0,1-3.9,1.49,6.15,6.15,0,0,0-10.63,4.2,5.89,5.89,0,0,0,.16,1.4A17.44,17.44,0,0,1,2.13,1.46,6.07,6.07,0,0,0,1.3,4.54c0,2.14,2.17,4,3.82,5.12-1,0-1.7-.31-1.7-.77V9c0,3,1,5.46,3.84,6a10.91,10.91,0,0,1-2.16.22,9.73,9.73,0,0,1-1.43-.11,6,6,0,0,0,5.61,4.27A12.53,12.53,0,0,1,1.58,22a12.33,12.33,0,0,1-1.5-.09,17.25,17.25,0,0,0,9.4,2.76C20.79,24.67,27,15.31,27,7.19c0-.27,0-.53,0-.8A12.5,12.5,0,0,0,30,3.21Z"/></svg>