<?xml version="1.0" encoding="utf-8"?>
<!-- Generator: Adobe Illustrator 19.2.1, SVG Export Plug-In . SVG Version: 6.00 Build 0)  -->
<svg version="1.1" id="レイヤー_1" xmlns="http://www.w3.org/2000/svg" xmlns:xlink="http://www.w3.org/1999/xlink" x="0px"
	 y="0px" viewBox="0 0 140 84" style="enable-background:new 0 0 140 84;" xml:space="preserve">
<style type="text/css">
	.st0{fill:#1C1C1C;}
</style>
<g>
	<g>
		<path class="st0" d="M0.5,57.5H9v1.3c0,5.9,1.1,10.3,3.3,13c2.2,2.7,5.7,4.1,10.5,4.1c5.2,0,9.3-1.5,12.2-4.6
			c3-3,4.4-7.2,4.4-12.4c0-6.1-4.5-10.9-13.6-14.5c-1.5-0.6-2.7-1.1-3.5-1.5c-4.9-2-8.5-4.4-10.6-7.2c-2.1-2.8-3.2-6.5-3.2-11.1
			c0-7.4,2.2-13.3,6.6-17.8c4.4-4.5,10.2-6.7,17.4-6.7c6.4,0,11.6,1.8,15.4,5.3c3.8,3.5,5.7,8.3,5.7,14.3c0,0.7,0,1.2,0,1.5
			c0,0.3,0,0.6-0.1,1H45v-1c0-4.2-1.1-7.4-3.2-9.7c-2.2-2.3-5.2-3.4-9.2-3.4c-4.5,0-8.2,1.4-10.9,4.2c-2.7,2.8-4.1,6.5-4.1,11.1
			c0,5.3,4.5,9.9,13.5,13.6c0.7,0.3,1.2,0.5,1.5,0.7c6.6,2.8,11,5.7,13,8.5c2,2.9,3.1,6.7,3.1,11.6c0,7.7-2.4,14-7.3,18.8
			c-4.8,4.8-11.2,7.2-19.1,7.2c-7,0-12.4-2-16.3-6c-3.9-4-5.8-9.5-5.8-16.6c0-0.8,0.1-1.9,0.2-3.4C0.4,57.6,0.5,57.5,0.5,57.5z"/>
	</g>
	<g>
		<path class="st0" d="M78.4,32.3l-0.6,3.1h-10l-2.1,10.1h9.8l-0.6,3h-9.8l-3,14.6h-3.5l6.4-30.8H78.4z"/>
		<path class="st0" d="M79.4,54c0-1.1,0.1-2.3,0.3-3.7c0.2-1.4,0.5-2.9,0.8-4.5c0.4-1.6,0.7-3,1.2-4.2c0.4-1.3,0.9-2.4,1.3-3.3
			c1-2,2.2-3.5,3.7-4.5s3.2-1.5,5.1-1.5c2.7,0,4.8,0.8,6.2,2.3c1.4,1.6,2.1,3.8,2.1,6.8c0,1.1-0.1,2.3-0.3,3.7
			c-0.2,1.4-0.5,2.9-0.8,4.5c-0.3,1.5-0.7,2.9-1.1,4.2c-0.4,1.3-0.8,2.4-1.3,3.4c-1,2-2.2,3.6-3.7,4.6c-1.5,1-3.2,1.5-5.2,1.5
			c-2.7,0-4.8-0.8-6.2-2.3C80.1,59.3,79.4,57,79.4,54z M91.7,35c-1.4,0-2.6,0.4-3.6,1.3c-1,0.8-1.8,2.1-2.5,3.9
			C85.3,41,85,41.9,84.7,43c-0.3,1.1-0.6,2.2-0.9,3.5c-0.4,1.8-0.6,3.4-0.8,4.7c-0.2,1.3-0.2,2.5-0.2,3.6c0,1.8,0.5,3.2,1.4,4.2
			c0.9,1,2.2,1.5,3.8,1.5c1.3,0,2.5-0.4,3.5-1.2c1-0.8,1.8-2,2.4-3.7c0.3-0.7,0.6-1.7,0.9-2.8c0.3-1.1,0.6-2.4,0.9-3.8
			c0.4-1.8,0.7-3.5,0.9-5c0.2-1.5,0.3-2.7,0.3-3.6c0-1.7-0.5-3-1.4-3.9C94.5,35.5,93.3,35,91.7,35z"/>
		<path class="st0" d="M101.9,54c0-1.1,0.1-2.3,0.3-3.7c0.2-1.4,0.5-2.9,0.8-4.5c0.4-1.6,0.7-3,1.2-4.2c0.4-1.3,0.9-2.4,1.3-3.3
			c1-2,2.2-3.5,3.7-4.5s3.2-1.5,5.1-1.5c2.7,0,4.8,0.8,6.2,2.3c1.4,1.6,2.1,3.8,2.1,6.8c0,1.1-0.1,2.3-0.3,3.7
			c-0.2,1.4-0.5,2.9-0.8,4.5c-0.3,1.5-0.7,2.9-1.1,4.2c-0.4,1.3-0.8,2.4-1.3,3.4c-1,2-2.2,3.6-3.7,4.6c-1.5,1-3.2,1.5-5.2,1.5
			c-2.7,0-4.8-0.8-6.2-2.3C102.6,59.3,101.9,57,101.9,54z M114.2,35c-1.4,0-2.6,0.4-3.6,1.3c-1,0.8-1.8,2.1-2.5,3.9
			c-0.3,0.8-0.6,1.8-0.9,2.8c-0.3,1.1-0.6,2.2-0.9,3.5c-0.4,1.8-0.6,3.4-0.8,4.7c-0.2,1.3-0.2,2.5-0.2,3.6c0,1.8,0.5,3.2,1.4,4.2
			c0.9,1,2.2,1.5,3.8,1.5c1.3,0,2.5-0.4,3.5-1.2c1-0.8,1.8-2,2.4-3.7c0.3-0.7,0.6-1.7,0.9-2.8c0.3-1.1,0.6-2.4,0.9-3.8
			c0.4-1.8,0.7-3.5,0.9-5c0.2-1.5,0.3-2.7,0.3-3.6c0-1.7-0.5-3-1.4-3.9C117,35.5,115.8,35,114.2,35z"/>
		<path class="st0" d="M123.7,63.1l6.4-30.8h3.5L127.8,60h12l-0.6,3.1H123.7z"/>
	</g>
</g>
</svg>
